<?xml version="1.0" standalone="no"?><!DOCTYPE svg PUBLIC "-//W3C//DTD SVG 1.1//EN" "http://www.w3.org/Graphics/SVG/1.1/DTD/svg11.dtd"><svg class="icon" height="512" viewBox="0 0 1024 1024" version="1.1" xmlns="http://www.w3.org/2000/svg"><path d="M359.396 357.541c6.417-6.604 11.375-14.02 14.25-22.166 1.959-5.562-0.958-11.646-6.521-13.604-5.583-1.98-11.646 0.979-13.604 6.52-7.625 21.668-38.396 37.396-73.188 37.396-34.771 0-65.541-15.729-73.166-37.396-1.959-5.541-8.021-8.5-13.604-6.52-5.562 1.957-8.479 8.041-6.521 13.604 2.854 8.146 7.812 15.541 14.229 22.125l-24.541 28.125c-3.875 4.438-3.417 11.188 1.021 15.062 2.021 1.75 4.521 2.625 7.021 2.625 2.979 0 5.938-1.229 8.042-3.646l25.312-29c4.708 2.834 9.667 5.418 15.062 7.562l-14.375 30.084c-2.542 5.334-0.292 11.688 5.021 14.229 1.5 0.709 3.062 1.043 4.604 1.043 3.979 0 7.792-2.23 9.625-6.062l15.917-33.312c5.083 1.02 10.312 1.75 15.688 2.166l0 36.666c0 5.896 4.771 10.668 10.666 10.668 5.896 0 10.667-4.771 10.667-10.668l0-36.666c5.396-0.416 10.667-1.146 15.792-2.188l15.812 33.312c1.812 3.834 5.646 6.084 9.625 6.084 1.541 0 3.104-0.334 4.583-1.043 5.312-2.52 7.583-8.875 5.042-14.207l-14.312-30.125c5.375-2.146 10.312-4.709 15-7.543l25.354 29c2.104 2.418 5.062 3.646 8.021 3.646 2.5 0 5-0.875 7.021-2.646 4.438-3.875 4.896-10.604 1-15.041L359.396 357.541zM804.938 357.521c6.417-6.584 11.396-14 14.271-22.125 1.959-5.562-0.958-11.646-6.5-13.625-5.562-1.938-11.625 0.957-13.625 6.5-7.666 21.688-38.479 37.416-73.25 37.416-34.75 0-65.541-15.729-73.166-37.396-1.959-5.562-8.021-8.5-13.604-6.52-5.562 1.957-8.479 8.041-6.521 13.604 2.875 8.146 7.833 15.562 14.25 22.146l-24.5 28.104c-3.875 4.459-3.417 11.188 1.021 15.062 2.021 1.75 4.521 2.625 7.021 2.625 2.979 0 5.938-1.229 8.042-3.646l25.292-29c4.688 2.834 9.646 5.418 15.021 7.562l-14.354 30.105c-2.541 5.312-0.291 11.666 5.042 14.207 1.479 0.709 3.042 1.043 4.583 1.043 3.979 0 7.792-2.23 9.625-6.084l15.875-33.291c5.104 1.02 10.334 1.75 15.709 2.166l0 36.666c0 5.896 4.771 10.668 10.666 10.668 5.896 0 10.667-4.771 10.667-10.668l0-36.666c5.396-0.416 10.667-1.146 15.792-2.188l15.854 33.312c1.812 3.834 5.646 6.084 9.625 6.084 1.542 0 3.104-0.334 4.584-1.043 5.312-2.52 7.583-8.895 5.041-14.207l-14.333-30.146c5.354-2.146 10.312-4.709 15-7.521l25.312 29c2.125 2.418 5.062 3.646 8.042 3.646 2.5 0 5-0.875 7.021-2.625 4.438-3.875 4.896-10.625 1.021-15.062L804.938 357.521zM512 42.666c-324.583 0-469.333 96.667-469.333 313.459 0 128.854 56.938 287.896 148.604 415.041C287.562 904.729 404.458 981.334 512 981.334c104.458 0 220.25-76.668 317.688-210.355 93.542-128.312 151.646-287.27 151.646-414.854C981.333 139.333 836.583 42.666 512 42.666zM148.583 371.875c0-77.709 63-140.709 140.646-140.709 77.708 0 140.625 63 140.625 140.709 0 77.646-62.917 140.646-140.625 140.646C211.583 512.521 148.583 449.521 148.583 371.875zM512 813.75c-64.354 0-123.396-47.312-145.979-76.709l291.959 0C635.396 766.438 576.354 813.75 512 813.75zM363.292 705.041c19.5-22.291 74.188-55.52 100.125-55.52 31.812 0 48.583 31.832 48.583 31.832s16.729-31.832 48.583-31.832c25.917 0 80.625 33.229 100.146 55.52L363.292 705.041zM734.771 512.521c-77.708 0-140.666-63-140.666-140.646 0-77.709 62.958-140.709 140.666-140.709 77.625 0 140.646 63 140.646 140.709C875.417 449.521 812.396 512.521 734.771 512.521z" /></svg>