<?xml version="1.0" standalone="no"?><!DOCTYPE svg PUBLIC "-//W3C//DTD SVG 1.1//EN" "http://www.w3.org/Graphics/SVG/1.1/DTD/svg11.dtd"><svg class="icon" height="512" viewBox="0 0 1024 1024" version="1.1" xmlns="http://www.w3.org/2000/svg"><path d="M493.11767 0.03367c116.009167-1.419852 175.952142 43.193803 196.204082 136.642129 6.344224 29.272948 2.830069 56.711739 2.627733 91.970663 9.343343-2.848463 16.490778 1.61518 21.897777 5.255466 10.029182 32.484038-1.459268 78.613019-16.642311 98.102041l-21.021866 19.270044-1.751822 22.773688c-3.377513 19.694861-4.587146 40.497749-11.386844 56.93422-9.764657 23.604052-30.233823 42.117308-39.415999 63.941509-5.833568 13.865672-2.40788 67.763109 0.875912 82.335642 5.605831 24.868867 20.979822 32.190608 37.664176 45.547376 23.649599 18.93457 32.539221 68.390261 20.145955 107.737063h-0.875911c-63.110269-12.399397-107.449764 42.989716-124.379374 81.45973-5.430649 12.332828-6.578968 26.645215-13.138666 39.415999q-5.255466 3.061309-10.510933 6.131377c-10.948889 7.716777-21.095442 26.408719-14.890488 45.547377 19.326102 59.605749 115.240117 6.981011 63.941509-42.919643 9.021884-59.29918 73.043101-124.834847 138.39395-75.328353 29.9474 22.686097 24.91967 74.750252 17.518222 116.496173-61.713191 9.889036-18.235593 114.393987 36.788265 67.445154 9.214585-7.865681 15.871509-28.37076 9.635022-43.795554q-4.375176-7.002909-8.759111-14.014578c-0.613138-8.872979 6.718238-35.868559 8.759111-48.175109 10.808743-65.159025-27.302148-101.745831-63.065598-122.627551 1.644085-31.611631 5.718823-60.18823 0.875912-91.970664h0.875911c67.629094 26.306237 149.807072 52.379483 184.817238 111.240707 19.462744 32.724038 23.167848 74.846602 31.532798 119.123907 5.859845 30.998493 19.173694 115.690335-4.379555 133.138485-25.191203 18.656906-154.335532 10.510933-202.335459 10.510933h-578.977224c-20.618071 0-45.689274 2.242332-60.437865-4.379556-31.254259-14.023336-15.396765-113.67574-7.8832-149.780795 7.91736-38.049577 12.712973-79.121048 29.780977-108.612974 31.38039-54.225903 128.583747-94.698251 195.328171-114.744351-15.980122 46.569564 0.891677 113.47428 7.8832 156.788083-55.312909 31.156157-18.874132 140.250882 56.93422 112.99253 61.989103-22.283178 55.197289-120.691788-19.270044-124.379374-5.505977-39.214539-21.646391-105.296775-4.379555-147.153061 8.67152-21.030625 26.379814-27.494849 38.540087-43.795554 10.182466-13.650198 16.185085-73.572151 10.510933-99.853863-1.953282-9.048161-10.377794-15.802312-14.890488-22.773688l-26.277333-47.299199c-4.379555-10.914728-10.510933-75.956381-14.014577-79.707908l-19.270044-17.518222c-12.656915-16.072092-15.841728-38.092497-20.145955-63.065597-4.001162-23.211644 1.941019-46.995257 25.401422-40.29191-0.92759-114.682162 15.42567-176.85433 94.598396-213.722304 20.201137-9.406409 45.41599-6.682326 66.569243-14.890488z" fill="#010101" /></svg>