<?xml version="1.0" standalone="no"?><!DOCTYPE svg PUBLIC "-//W3C//DTD SVG 1.1//EN" "http://www.w3.org/Graphics/SVG/1.1/DTD/svg11.dtd"><svg style="fill: #fff" class="icon" height="512" viewBox="0 0 1024 1024" version="1.1" xmlns="http://www.w3.org/2000/svg"><path d="M484.568237 209.803839s-58.795113 30.023037-71.304712-4.82513c0 0-4.646422-17.692147 8.756719-40.924259s8.57801-47.357766-28.235951-44.855846c0 0-15.190227 1.072251-73.627923 30.737871s-118.841187 47.000349-118.841187 47.000349-82.205934 21.981152-123.3089 27.878534c0 0-8.57801 21.087609 28.235951 16.798604 36.813962-4.289005 186.393019-46.106806 222.492146-69.338918 0 0-51.82548 44.141012-220.347644 73.270506 0 0 0.536126 14.654101 32.703665 14.83281 32.167539 0.357417 189.431065-58.973822 202.834206-69.338918 0 0-110.263176 58.080279-198.366492 72.73438 0 0 12.509599 16.441187 38.422339 13.760558s135.818499-45.928098 163.518324-64.692495c0 0-108.654799 62.190576-160.480279 68.445375 0 0 14.83281 12.509599 50.57452 11.258639 35.74171-1.25096 128.134031-65.586038 128.134032-65.586039s-67.551832 50.931937-122.057941 68.266667c0 0 26.270157 14.296684 56.293194 7.148342s87.031065-57.186736 87.031064-57.186736-41.639092 45.928098-81.848516 58.258987c0 0 21.802443 21.266318 60.40349-3.216754 0 0 31.810122-21.445026 50.395812-46.106806 0 0-17.870855 31.810122-47.893892 49.680978s22.338569 27.342408 51.82548-8.578011 28.950785-46.464223 28.950785-46.464223-3.931588 28.235951-35.205585 59.331239c0 0-4.467714 31.631414 33.061082-8.935428s37.886213-89.354276 37.886213-89.354276zM531.747295 209.803839s58.795113 30.023037 71.304712-4.82513c0 0 4.646422-17.692147-8.756719-40.924259s-8.57801-47.357766 28.235951-44.855846c0 0 15.190227 1.072251 73.627923 30.737871s118.841187 47.000349 118.841187 47.000349 82.205934 21.981152 123.308901 27.878534c0 0 8.57801 21.087609-28.235952 16.798604-36.813962-4.289005-186.393019-46.106806-222.492146-69.338918 0 0 51.82548 44.141012 220.347644 73.270506 0 0-0.536126 14.654101-32.703665 14.83281-32.167539 0.357417-189.431065-58.973822-202.834206-69.338918 0 0 110.263176 58.080279 198.366492 72.73438 0 0-12.509599 16.441187-38.422338 13.760558s-135.818499-45.928098-163.518325-64.692495c0 0 108.654799 62.190576 160.480279 68.445375 0 0-14.83281 12.509599-50.57452 11.258639-35.74171-1.25096-128.134031-65.586038-128.134031-65.586039s67.551832 50.931937 122.05794 68.266667c0 0-26.270157 14.296684-56.293193 7.148342s-87.031065-57.186736-87.031065-57.186736 41.639092 45.928098 81.848517 58.258987c0 0-21.802443 21.266318-60.403491-3.216754 0 0-31.810122-21.445026-50.395811-46.106806 0 0 17.870855 31.810122 47.893892 49.680978s-22.338569 27.342408-51.82548-8.578011-28.950785-46.464223-28.950786-46.464223 3.931588 28.235951 35.205585 59.331239c0 0 4.467714 31.631414-33.061082-8.935428s-37.886213-89.354276-37.886213-89.354276zM505.834555 94.715532m-42.890052 0a42.890052 42.890052 0 1 0 85.780104 0 42.890052 42.890052 0 1 0-85.780104 0ZM487.9637 140.286213h35.74171v10.722513h-35.74171zM513.519023 965.562304h-13.939267l-5.718674-814.910995h25.019197zM442.214311 366.709948l26.806282-14.117976s19.300524-12.152182-10.007679-16.08377-64.871204 13.045724-85.06527 33.775917-10.007679 45.749389 6.433508 56.471902 87.745899 46.106806 87.745899 46.106806-56.114485 22.15986-63.977662 38.601047 24.66178 31.810122 48.787435 39.49459c0 0-60.939616 25.555323-8.220594 51.82548 0 0 13.939267 6.254799 27.342409 11.258639 0 0-39.137173 18.943106-27.699826 36.456544s38.422339 29.308202 38.422339 29.308203-30.559162 16.619895-29.486911 36.635253 34.848168 30.559162 34.848167 30.559162-26.984991 16.262478-26.984991 30.380454 31.988831 37.707504 31.988831 37.707504-35.026876 29.129494 3.216754 64.513787c0 0-22.338569 35.74171 3.395462 62.190576 0 0-18.228272-26.270157 3.395463-49.32356 21.623735-23.053403-2.680628-25.734031-2.680629-25.734031s-22.338569-17.513438-0.357417-37.171379 0-29.308202 0-29.308202-21.981152-7.684468-23.232111-23.410821c0 0 1.429668-13.58185 26.448865-17.513438s-10.365096-29.66562-10.365096-29.665619-45.570681-17.870855 2.144503-32.703665l14.654101-4.110297-9.292845-28.235951s-35.026876-9.471553-36.277836-20.908901c-1.25096-11.437347 42.532635-20.908901 42.532636-20.9089l-1.429669-24.66178s-71.840838-12.867016-55.757068-22.874695c16.08377-10.186387 50.395812-21.087609 50.395812-21.087609l4.110296-19.479232s-76.308551-7.148342-65.764746-21.087609c10.722513-13.939267 65.40733-23.768237 65.407329-23.768237l-0.357417-36.635253S405.757766 421.752182 397.358464 396.732984c-0.178709 0.357417-5.003839-11.07993 44.855847-30.023036zM571.77801 366.709948l-26.806282-14.117976s-19.300524-12.152182 10.007679-16.08377 64.871204 13.045724 85.06527 33.775917 10.007679 45.749389-6.433508 56.471902-87.745899 46.106806-87.745898 46.106806 56.114485 22.15986 63.977661 38.601047-24.66178 31.810122-48.787435 39.49459c0 0 60.939616 25.555323 8.220594 51.82548 0 0-13.939267 6.254799-27.342409 11.258639 0 0 39.137173 18.943106 27.699826 36.456544S531.211169 679.80733 531.211169 679.80733s30.559162 16.619895 29.486911 36.635253-34.669459 30.559162-34.669459 30.559162 26.984991 16.262478 26.984992 30.380454-31.988831 37.707504-31.988831 37.707504 35.026876 29.129494-3.216754 64.513787c0 0 22.338569 35.74171-3.395463 62.190576 0 0 18.228272-26.270157-3.395462-49.32356-21.623735-23.053403 2.680628-25.734031 2.680628-25.734031s22.338569-17.513438 0.357417-37.171379 0-29.308202 0-29.308202 21.981152-7.684468 23.232112-23.410821c0 0-1.429668-13.58185-26.448866-17.513438-25.019197-4.110297 10.365096-29.66562 10.365096-29.665619s45.570681-17.870855-2.144502-32.703665l-14.654101-4.110297 9.292844-28.235951s35.026876-9.471553 36.277836-20.908901-42.532635-20.908901-42.532635-20.9089l1.429668-24.66178s71.840838-12.867016 55.757068-22.874695c-16.08377-10.186387-50.395812-21.087609-50.395811-21.087609l-4.110297-19.479232s76.308551-7.148342 65.586039-21.087609c-10.722513-13.939267-65.40733-23.768237-65.40733-23.768237l0.357417-36.635253s97.574869-31.452705 105.974171-56.471903c0 0.357417 5.003839-11.07993-44.855847-30.023036z" /></svg>