<?xml version="1.0" standalone="no"?><!DOCTYPE svg PUBLIC "-//W3C//DTD SVG 1.1//EN" "http://www.w3.org/Graphics/SVG/1.1/DTD/svg11.dtd"><svg class="icon" height="512" viewBox="0 0 1057 1024" version="1.1" xmlns="http://www.w3.org/2000/svg"><path d="M334.797639 595.095082c20.882885-40.406033 86.133508-60.449574 70.555279-116.786361-0.167869-0.520393-0.352525-0.856131-0.520393-1.544393l58.401573 57.360787c4.448525 4.297443 9.568525 7.70518 15.225705 9.954623l159.609705 63.185836c5.304656 2.064787 10.810754 3.105574 16.434361 3.105574a45.693902 45.693902 0 0 0 42.806557-30.652853c9.081705-24.492066-2.736262-52.072918-26.540065-61.490361l-141.110558-56.017836a55.02741 55.02741 0 0 1-17.810885-11.633311s-124.323672-122.275672-124.323672-122.443541c-5.304656-5.136787-11.985836-8.561311-19.18741-10.961836a26.439344 26.439344 0 0 0-5.304656-1.527607 33.019803 33.019803 0 0 0-5.992918-1.544393c-30.98859-8.561311-65.586361-15.913967-97.431082-13.009836-10.45823 0.856131-21.923672 3.760262-31.005377 10.088918-10.256787 7.70518-14.55423 20.563934-19.523147 32.029377-29.796721 68.507279-94.862689 243.712-112.673574 287.878295h221.754754c5.153574-12.338361 10.642885-24.492066 16.635803-35.991082m70.891017-301.912131c70.219541 0 127.24459-59.240918 127.24459-132.028853 0-72.955803-57.025049-132.045639-127.24459-132.045639-14.889967 0-29.276328 2.753049-42.47082 7.537311-36.125377 13.362361-64.73023 42.991213-77.572197 80.30846a137.921049 137.921049 0 0 0-7.184787 44.199868c0 72.955803 57.025049 132.028852 127.227804 132.028853M45.727475 905.937836A71.730361 71.730361 0 0 1 0 889.335607v66.442491h687.406164l-47.439738-49.840262H45.727475zM997.191344 836.406557H774.748328l-151.216262-159.106098c-11.650098-12.321574-18.667016-17.475148-39.549902-17.475148-36.142164 0-538.254689 0.352525-538.254689 0.352525C20.563934 660.177836 0 681.413246 0 707.600787v122.091016c0 26.221115 20.379279 47.456525 45.727475 47.456525h605.905836l58.032263 60.969967c5.489311 5.640393 12.002623 10.273574 19.204196 13.345574 6.832262 2.920918 14.218492 4.465311 21.923673 4.465311h247.455475c32.180459 0 58.065836-27.396197 57.528656-60.617442-0.520393-32.885508-26.89259-58.90518-58.58623-58.905181M840.502557 795.631213c72.97259 0 132.028852-61.288918 132.028853-136.99777 0-75.692066-59.240918-136.99777-132.028853-136.997771-72.955803 0-132.028852 61.305705-132.028852 136.997771 0 75.708852 59.240918 136.99777 132.028852 136.99777" /></svg>